<mxfile host="app.diagrams.net" modified="2023-12-22T16:22:57.914Z" agent="Mozilla/5.0 (Windows NT 10.0; Win64; x64) AppleWebKit/537.36 (KHTML, like Gecko) Chrome/120.0.0.0 Safari/537.36" version="22.1.11" etag="hDo7Cbz1YLUerI0o6Xoe" type="github">
  <diagram name="PÃ¡gina-1" id="zotJ_A3CokVoDSD17_7E">
    <mxGraphModel>
      <root>
        <mxCell id="0" />
        <mxCell id="1" parent="0" />
      </root>
    </mxGraphModel>
  </diagram>
</mxfile>
